<svg id="eXSiW6CRwru1" xmlns="http://www.w3.org/2000/svg" xmlns:xlink="http://www.w3.org/1999/xlink" viewBox="0 0 2048 2048" shape-rendering="geometricPrecision" text-rendering="geometricPrecision"><g transform="translate(1.424256 113.708313)"><g transform="translate(1024 1058)"><path d="M448.793435,-982.90309L445.945,-102.478c0,246.756-199.189,445.945-445.945079,445.945-246.755921,0-445.944921-199.189-445.944921-445.945v0h297.297v0c0,81.7567,66.8915,148.6484,148.64796,148.6484s148.64804-66.8917,148.64804-148.6484v-880.42509h300.145435Z" transform="matrix(-1 0 0 1 0 25.032303)" fill="#fffefe"/><path d="M-427.337175,350.961062L-577.434,484.497c318.743,323.053857,825.493864,323.148212,1144.236864,0L430.913218,350.961062c-255.226,255.227-603.024393,255.226-858.250393,0Z" transform="translate(3.89135-64.36878)" fill="#fffefe" stroke="#fffefe" stroke-width="81.73" stroke-linecap="square"/></g><rect width="311.115768" height="547.134625" rx="0" ry="0" transform="matrix(0 0.836875-1.235295 0 1361.936334 474.340902)" fill="#fff" stroke-width="0"/></g></svg>
